# xmcd
#
# Track frame offsets: 
#        150
#        8862
#        29417
#        52360
#        59880
#        85065
#        107032
#        119225
#        145007
#        170935
#        176000
#        198835
#        204430
#        225120
#        247672
#        270142
#        279575
#        301760
#
# Disc length: 4297 seconds
#
# Revision: 2
# Processed by: cddbd v1.5.2PL0 Copyright (c) Steve Scherf et al.
# Submitted via: ExactAudioCopyFreeDBPlugin 1.0
#
DISCID=fa10c712
DTITLE=Menageri - All Day Every Day (18 tracks CD)
DYEAR=1994
DGENRE=R&B
TTITLE0=Jazz Intro (Feat. Prince Markie Dee)
TTITLE1=I Ain't Gonna Be With You
TTITLE2=18 And Over
TTITLE3=Al B. Sure! Radio Interview: Interlude
TTITLE4=Now I Realize
TTITLE5=I Love You
TTITLE6=Gettin' It On With Al B. Sure!
TTITLE7=Make You Climb
TTITLE8=I Won't Cry
TTITLE9=Eric B., Tito, Hassan Interlude
TTITLE10=Honey, I'm Scared
TTITLE11=Mace and Fat Doug Interlude
TTITLE12=Can't Nothin'
TTITLE13=Why Oh Why
TTITLE14=You've Been Around
TTITLE15=Nice and Smooth Interlude
TTITLE16=Takin It Easy
TTITLE17=Farewell My Love
EXTD=
EXTT0=
EXTT1=
EXTT2=
EXTT3=
EXTT4=
EXTT5=
EXTT6=
EXTT7=
EXTT8=
EXTT9=
EXTT10=
EXTT11=
EXTT12=
EXTT13=
EXTT14=
EXTT15=
EXTT16=
EXTT17=
PLAYORDER=
